<mxfile host="app.diagrams.net" agent="Mozilla/5.0 (Windows NT 10.0; Win64; x64) AppleWebKit/537.36 (KHTML, like Gecko) Chrome/138.0.0.0 Safari/537.36" version="28.0.6">
  <diagram name="Page-1" id="EgZ8p7w59y21d90oFD0b">
    <mxGraphModel dx="1426" dy="777" grid="1" gridSize="10" guides="1" tooltips="1" connect="1" arrows="1" fold="1" page="1" pageScale="1" pageWidth="850" pageHeight="1100" math="0" shadow="0">
      <root>
        <mxCell id="0" />
        <mxCell id="1" parent="0" />
        <mxCell id="qxC39b3AHj1RgAYWUjI8-1" value="&lt;span style=&quot;font-size: 30px;&quot;&gt;SEARCH&lt;/span&gt;" style="rounded=0;whiteSpace=wrap;html=1;fillColor=#6a00ff;fontColor=#ffffff;strokeColor=#3700CC;" vertex="1" parent="1">
          <mxGeometry x="120" y="190" width="210" height="60" as="geometry" />
        </mxCell>
        <mxCell id="qxC39b3AHj1RgAYWUjI8-2" value="&lt;font style=&quot;font-size: 30px;&quot;&gt;SHOWTIME&lt;/font&gt;" style="rounded=0;whiteSpace=wrap;html=1;fillColor=#1ba1e2;fontColor=#ffffff;strokeColor=#006EAF;" vertex="1" parent="1">
          <mxGeometry x="120" y="260" width="210" height="60" as="geometry" />
        </mxCell>
        <mxCell id="qxC39b3AHj1RgAYWUjI8-3" value="&lt;span style=&quot;font-size: 30px;&quot;&gt;BOOKING&lt;/span&gt;" style="rounded=0;whiteSpace=wrap;html=1;fillColor=#a20025;fontColor=#ffffff;strokeColor=#6F0000;" vertex="1" parent="1">
          <mxGeometry x="120" y="330" width="210" height="60" as="geometry" />
        </mxCell>
        <mxCell id="qxC39b3AHj1RgAYWUjI8-4" value="&lt;font style=&quot;font-size: 30px;&quot;&gt;PAYMENT&lt;/font&gt;&lt;div&gt;&lt;br&gt;&lt;/div&gt;" style="rounded=0;whiteSpace=wrap;html=1;fillColor=#008a00;fontColor=#ffffff;strokeColor=#005700;" vertex="1" parent="1">
          <mxGeometry x="120" y="410" width="210" height="60" as="geometry" />
        </mxCell>
        <mxCell id="qxC39b3AHj1RgAYWUjI8-5" value="&lt;font style=&quot;font-size: 24px;&quot;&gt;CANCEL BOOKING&lt;/font&gt;" style="rounded=0;whiteSpace=wrap;html=1;fillColor=#0050ef;fontColor=#ffffff;strokeColor=#001DBC;" vertex="1" parent="1">
          <mxGeometry x="120" y="480" width="210" height="60" as="geometry" />
        </mxCell>
        <mxCell id="qxC39b3AHj1RgAYWUjI8-6" value="&lt;br&gt;&lt;br&gt;ACTOR" style="shape=actor;whiteSpace=wrap;html=1;" vertex="1" parent="1">
          <mxGeometry y="280" width="70" height="100" as="geometry" />
        </mxCell>
        <mxCell id="qxC39b3AHj1RgAYWUjI8-7" value="" style="endArrow=classic;html=1;rounded=0;" edge="1" parent="1">
          <mxGeometry width="50" height="50" relative="1" as="geometry">
            <mxPoint x="50" y="300" as="sourcePoint" />
            <mxPoint x="100" y="220" as="targetPoint" />
          </mxGeometry>
        </mxCell>
        <mxCell id="qxC39b3AHj1RgAYWUjI8-8" value="" style="endArrow=classic;html=1;rounded=0;" edge="1" parent="1">
          <mxGeometry width="50" height="50" relative="1" as="geometry">
            <mxPoint x="60" y="330" as="sourcePoint" />
            <mxPoint x="110" y="280" as="targetPoint" />
          </mxGeometry>
        </mxCell>
        <mxCell id="qxC39b3AHj1RgAYWUjI8-9" value="" style="endArrow=classic;html=1;rounded=0;entryX=0;entryY=0.75;entryDx=0;entryDy=0;exitX=1;exitY=0.8;exitDx=0;exitDy=0;exitPerimeter=0;" edge="1" parent="1" source="qxC39b3AHj1RgAYWUjI8-6" target="qxC39b3AHj1RgAYWUjI8-3">
          <mxGeometry width="50" height="50" relative="1" as="geometry">
            <mxPoint x="60" y="365" as="sourcePoint" />
            <mxPoint x="110" y="315" as="targetPoint" />
          </mxGeometry>
        </mxCell>
        <mxCell id="qxC39b3AHj1RgAYWUjI8-10" value="" style="endArrow=classic;html=1;rounded=0;" edge="1" parent="1">
          <mxGeometry width="50" height="50" relative="1" as="geometry">
            <mxPoint x="60" y="380" as="sourcePoint" />
            <mxPoint x="120" y="440" as="targetPoint" />
          </mxGeometry>
        </mxCell>
        <mxCell id="qxC39b3AHj1RgAYWUjI8-11" value="" style="endArrow=classic;html=1;rounded=0;" edge="1" parent="1">
          <mxGeometry width="50" height="50" relative="1" as="geometry">
            <mxPoint x="50" y="380" as="sourcePoint" />
            <mxPoint x="110" y="500" as="targetPoint" />
          </mxGeometry>
        </mxCell>
        <mxCell id="qxC39b3AHj1RgAYWUjI8-13" value="" style="endArrow=none;dashed=1;html=1;rounded=0;" edge="1" parent="1">
          <mxGeometry width="50" height="50" relative="1" as="geometry">
            <mxPoint x="320" y="190" as="sourcePoint" />
            <mxPoint x="330" y="140" as="targetPoint" />
          </mxGeometry>
        </mxCell>
        <mxCell id="qxC39b3AHj1RgAYWUjI8-14" value="&lt;font style=&quot;font-size: 30px;&quot;&gt;filter by language&lt;/font&gt;" style="ellipse;whiteSpace=wrap;html=1;" vertex="1" parent="1">
          <mxGeometry x="310" y="70" width="160" height="100" as="geometry" />
        </mxCell>
        <mxCell id="qxC39b3AHj1RgAYWUjI8-15" value="" style="endArrow=none;dashed=1;html=1;rounded=0;" edge="1" parent="1">
          <mxGeometry width="50" height="50" relative="1" as="geometry">
            <mxPoint x="330" y="520" as="sourcePoint" />
            <mxPoint x="400" y="520" as="targetPoint" />
          </mxGeometry>
        </mxCell>
        <mxCell id="qxC39b3AHj1RgAYWUjI8-16" value="" style="endArrow=none;dashed=1;html=1;rounded=0;" edge="1" parent="1">
          <mxGeometry width="50" height="50" relative="1" as="geometry">
            <mxPoint x="400" y="520" as="sourcePoint" />
            <mxPoint x="400" y="430" as="targetPoint" />
          </mxGeometry>
        </mxCell>
        <mxCell id="qxC39b3AHj1RgAYWUjI8-17" value="&lt;font style=&quot;font-size: 30px;&quot;&gt;LOGIN&lt;/font&gt;" style="ellipse;whiteSpace=wrap;html=1;" vertex="1" parent="1">
          <mxGeometry x="350" y="350" width="120" height="80" as="geometry" />
        </mxCell>
        <mxCell id="qxC39b3AHj1RgAYWUjI8-18" value="" style="endArrow=none;dashed=1;html=1;rounded=0;" edge="1" parent="1" target="qxC39b3AHj1RgAYWUjI8-19">
          <mxGeometry width="50" height="50" relative="1" as="geometry">
            <mxPoint x="410" y="350" as="sourcePoint" />
            <mxPoint x="400" y="310" as="targetPoint" />
          </mxGeometry>
        </mxCell>
        <mxCell id="qxC39b3AHj1RgAYWUjI8-19" value="&amp;lt;&amp;lt;INCLUDE&amp;gt;&amp;gt;" style="rounded=0;whiteSpace=wrap;html=1;" vertex="1" parent="1">
          <mxGeometry x="350" y="270" width="120" height="60" as="geometry" />
        </mxCell>
        <mxCell id="qxC39b3AHj1RgAYWUjI8-38" value="" style="edgeStyle=orthogonalEdgeStyle;rounded=0;orthogonalLoop=1;jettySize=auto;html=1;" edge="1" parent="1" source="qxC39b3AHj1RgAYWUjI8-20" target="qxC39b3AHj1RgAYWUjI8-23">
          <mxGeometry relative="1" as="geometry" />
        </mxCell>
        <mxCell id="qxC39b3AHj1RgAYWUjI8-20" value="&lt;br&gt;&lt;br&gt;ADMIN" style="shape=actor;whiteSpace=wrap;html=1;" vertex="1" parent="1">
          <mxGeometry x="760" y="280" width="90" height="100" as="geometry" />
        </mxCell>
        <mxCell id="qxC39b3AHj1RgAYWUjI8-21" value="" style="endArrow=classic;html=1;rounded=0;" edge="1" parent="1" target="qxC39b3AHj1RgAYWUjI8-22">
          <mxGeometry width="50" height="50" relative="1" as="geometry">
            <mxPoint x="780" y="275" as="sourcePoint" />
            <mxPoint x="740" y="200" as="targetPoint" />
          </mxGeometry>
        </mxCell>
        <mxCell id="qxC39b3AHj1RgAYWUjI8-22" value="&lt;font style=&quot;font-size: 30px;&quot;&gt;Manage BOOKING&lt;/font&gt;" style="rounded=0;whiteSpace=wrap;html=1;fillColor=#fad9d5;strokeColor=#ae4132;" vertex="1" parent="1">
          <mxGeometry x="600" y="150" width="200" height="80" as="geometry" />
        </mxCell>
        <mxCell id="qxC39b3AHj1RgAYWUjI8-23" value="&lt;font style=&quot;font-size: 30px;&quot;&gt;Manage SHOWTME&lt;/font&gt;" style="rounded=0;whiteSpace=wrap;html=1;fillColor=#b0e3e6;strokeColor=#0e8088;" vertex="1" parent="1">
          <mxGeometry x="510" y="295" width="180" height="90" as="geometry" />
        </mxCell>
        <mxCell id="qxC39b3AHj1RgAYWUjI8-25" value="" style="endArrow=classic;html=1;rounded=0;" edge="1" parent="1" source="qxC39b3AHj1RgAYWUjI8-20" target="qxC39b3AHj1RgAYWUjI8-26">
          <mxGeometry width="50" height="50" relative="1" as="geometry">
            <mxPoint x="770" y="370" as="sourcePoint" />
            <mxPoint x="730" y="430" as="targetPoint" />
          </mxGeometry>
        </mxCell>
        <mxCell id="qxC39b3AHj1RgAYWUjI8-26" value="&lt;font style=&quot;font-size: 30px;&quot;&gt;GENERATE REPORTS&lt;/font&gt;" style="rounded=0;whiteSpace=wrap;html=1;" vertex="1" parent="1">
          <mxGeometry x="530" y="430" width="200" height="80" as="geometry" />
        </mxCell>
        <mxCell id="qxC39b3AHj1RgAYWUjI8-28" value="&lt;font style=&quot;font-size: 28px;&quot;&gt;&amp;lt;&amp;lt;EXTEND&amp;gt;&amp;gt;&lt;/font&gt;" style="rounded=0;whiteSpace=wrap;html=1;" vertex="1" parent="1">
          <mxGeometry x="450" y="10" width="200" height="60" as="geometry" />
        </mxCell>
        <mxCell id="qxC39b3AHj1RgAYWUjI8-29" value="" style="endArrow=none;html=1;rounded=0;" edge="1" parent="1">
          <mxGeometry width="50" height="50" relative="1" as="geometry">
            <mxPoint y="560" as="sourcePoint" />
            <mxPoint as="targetPoint" />
          </mxGeometry>
        </mxCell>
        <mxCell id="qxC39b3AHj1RgAYWUjI8-30" value="" style="endArrow=none;html=1;rounded=0;" edge="1" parent="1">
          <mxGeometry width="50" height="50" relative="1" as="geometry">
            <mxPoint as="sourcePoint" />
            <mxPoint x="850" as="targetPoint" />
          </mxGeometry>
        </mxCell>
        <mxCell id="qxC39b3AHj1RgAYWUjI8-31" value="" style="endArrow=none;html=1;rounded=0;" edge="1" parent="1">
          <mxGeometry width="50" height="50" relative="1" as="geometry">
            <mxPoint x="850" y="560" as="sourcePoint" />
            <mxPoint x="850" as="targetPoint" />
          </mxGeometry>
        </mxCell>
        <mxCell id="qxC39b3AHj1RgAYWUjI8-32" value="" style="endArrow=none;html=1;rounded=0;" edge="1" parent="1">
          <mxGeometry width="50" height="50" relative="1" as="geometry">
            <mxPoint y="560" as="sourcePoint" />
            <mxPoint x="850" y="560" as="targetPoint" />
          </mxGeometry>
        </mxCell>
        <mxCell id="qxC39b3AHj1RgAYWUjI8-33" value="&lt;font style=&quot;font-size: 30px;&quot;&gt;BOOK MY SHOW&lt;/font&gt;" style="rounded=0;whiteSpace=wrap;html=1;" vertex="1" parent="1">
          <mxGeometry x="300" y="580" width="250" height="80" as="geometry" />
        </mxCell>
        <mxCell id="qxC39b3AHj1RgAYWUjI8-34" value="" style="endArrow=none;dashed=1;html=1;rounded=0;entryX=0.008;entryY=0.383;entryDx=0;entryDy=0;entryPerimeter=0;exitX=1.01;exitY=0.367;exitDx=0;exitDy=0;exitPerimeter=0;" edge="1" parent="1" source="qxC39b3AHj1RgAYWUjI8-3" target="qxC39b3AHj1RgAYWUjI8-19">
          <mxGeometry width="50" height="50" relative="1" as="geometry">
            <mxPoint x="330" y="295" as="sourcePoint" />
            <mxPoint x="380" y="245" as="targetPoint" />
          </mxGeometry>
        </mxCell>
        <mxCell id="qxC39b3AHj1RgAYWUjI8-35" value="" style="endArrow=none;dashed=1;html=1;dashPattern=1 3;strokeWidth=2;rounded=0;entryX=0.275;entryY=0.963;entryDx=0;entryDy=0;entryPerimeter=0;" edge="1" parent="1" target="qxC39b3AHj1RgAYWUjI8-17">
          <mxGeometry width="50" height="50" relative="1" as="geometry">
            <mxPoint x="330" y="460" as="sourcePoint" />
            <mxPoint x="380" y="410" as="targetPoint" />
          </mxGeometry>
        </mxCell>
      </root>
    </mxGraphModel>
  </diagram>
</mxfile>
